<svg width="32" height="32" viewBox="0 0 32 32" fill="none" xmlns="http://www.w3.org/2000/svg">
<g clip-path="url(#clip0_2_12)">
<path d="M6.61719 22.2416H10.2324V26.2553L6.61719 22.2416ZM2.79102 24.5971H2.75586C2.75586 23.7924 2.97461 23.1986 3.41211 22.8158C3.84961 22.433 4.52344 22.2416 5.43359 22.2416L10.2324 28.0658C10.2324 28.8393 10.0234 29.392 9.60547 29.724C9.19922 30.0482 8.53516 30.2104 7.61328 30.2104L2.79102 24.5971ZM2.77344 26.1791L6.25391 30.2162H2.77344V26.1791Z" fill="#6366F1"/>
<path d="M16.6239 22.2357H19.8817V30.2162H16.6239V22.2357ZM12.4169 22.2357H15.6571V30.2162H15.1298C13.6923 30.2162 12.8349 29.7279 12.5575 28.7514C12.4638 28.435 12.4169 28.0697 12.4169 27.6557V22.2357Z" fill="#6366F1"/>
<path d="M26.0682 22.2416H26.5603C28.2166 22.2416 29.201 22.9701 29.5135 24.4272C29.6111 24.8686 29.66 25.3842 29.66 25.974C29.66 26.5639 29.5975 27.1264 29.4725 27.6615C29.3514 28.1967 29.1639 28.6537 28.91 29.0326C28.3826 29.8217 27.5994 30.2162 26.5603 30.2162H26.0682V22.2416ZM21.9432 22.2416H25.0955V30.2045H21.9432V22.2416Z" fill="#6366F1"/>
<path d="M26.3084 12.1335H26.8357C28.2732 12.1335 29.1307 12.6198 29.408 13.5925C29.5018 13.9128 29.5486 14.28 29.5486 14.694V20.1081H26.3084V12.1335ZM22.0545 12.1335H25.2068V20.1081H22.0545V12.1335Z" fill="#6366F1"/>
<path d="M26.2615 2.02539H29.5135V4.24023H28.9041C27.8455 4.24023 27.1228 4.07422 26.7361 3.74219C26.4197 3.46875 26.2615 3.02734 26.2615 2.41797V2.02539ZM22.0955 2.02539H25.2478V5.23633H27.5975V6.76562H25.2478V9.98828H22.0955V2.02539ZM26.2557 9.43164C26.2557 8.62305 26.7244 8.07422 27.6619 7.78516C28.0213 7.67578 28.4842 7.62109 29.0506 7.62109H29.5135V10H26.2557V9.43164Z" fill="#6366F1"/>
<path d="M16.9462 2.02539H19.8759V4.68555H18.704C18.1142 4.68555 17.6591 4.53516 17.3388 4.23438C17.077 3.98828 16.9462 3.68359 16.9462 3.32031V2.02539ZM15.4696 10C14.8368 10 14.2743 9.76562 13.7821 9.29688C13.3485 8.88281 13.0087 8.33203 12.7626 7.64453C12.536 7.01172 12.4228 6.38477 12.4228 5.76367C12.4228 4.83008 12.6532 4 13.1142 3.27344C13.4423 2.75781 13.8739 2.39453 14.4091 2.18359C14.6825 2.07812 14.9872 2.02539 15.3231 2.02539H15.7743V10H15.4696ZM16.6415 6.27344H19.8759V7.70312C19.8759 8.53906 19.6591 9.12891 19.2255 9.47266C18.788 9.82422 18.0653 10 17.0575 10H16.6415V6.27344Z" fill="#6366F1"/>
<path d="M16.6884 12.1335H17.2157C18.6532 12.1335 19.5106 12.6198 19.788 13.5925C19.8817 13.9128 19.9286 14.28 19.9286 14.694V20.1081H16.6884V12.1335ZM12.3642 14.694C12.3642 13.8308 12.5614 13.198 12.956 12.7956C13.3895 12.3542 14.0966 12.1335 15.077 12.1335H15.6044V20.1081H12.3642V14.694Z" fill="#6366F1"/>
</g>
<defs>
<clipPath id="clip0_2_12">
<rect width="32" height="32" fill="white"/>
</clipPath>
</defs>
</svg>
